<svg width="312" height="244" viewBox="0 0 312 244" fill="none" xmlns="http://www.w3.org/2000/svg">
<g clip-path="url(#clip0_1527_5334)">
<path d="M289.934 111.152C288.853 110.098 288.312 108.817 288.312 107.321C288.312 105.825 288.853 104.555 289.934 103.501C291.016 102.447 292.322 101.914 293.854 101.914C295.386 101.914 296.704 102.447 297.785 103.501C298.878 104.566 299.418 105.836 299.418 107.321C299.418 108.806 298.878 110.098 297.785 111.152C296.693 112.218 295.386 112.739 293.854 112.739C292.322 112.739 291.016 112.206 289.934 111.152ZM290.802 104.272C289.979 105.099 289.563 106.119 289.563 107.321C289.563 108.522 289.979 109.554 290.802 110.381C291.624 111.209 292.649 111.628 293.854 111.628C295.059 111.628 296.073 111.209 296.907 110.381C297.74 109.554 298.157 108.534 298.157 107.321C298.157 106.108 297.74 105.088 296.907 104.272C296.073 103.444 295.059 103.036 293.854 103.036C292.649 103.036 291.624 103.444 290.802 104.272ZM294.812 110.223L293.663 108.114H293.223V110.223H291.917V104.351H294.17C294.755 104.351 295.251 104.532 295.645 104.895C296.039 105.258 296.242 105.7 296.242 106.233C296.242 106.629 296.129 106.992 295.904 107.298C295.679 107.604 295.375 107.831 295.003 107.967L296.287 110.234H294.8L294.812 110.223ZM293.223 107.038H293.967C294.271 107.038 294.507 106.97 294.665 106.822C294.834 106.686 294.913 106.482 294.913 106.233C294.913 105.983 294.834 105.779 294.665 105.632C294.496 105.485 294.26 105.417 293.967 105.417H293.223V107.038Z" fill="#242424"/>
<path d="M97.1714 29.4373C89.0278 36.7938 77.0998 37.712 71.7383 31.7044C66.3769 25.6854 67.0414 13.0694 75.185 5.71289C83.3285 -1.64362 94.9863 -1.927 101.238 5.07812C107.478 12.0832 105.326 22.0922 97.1827 29.4373H97.1714Z" fill="#E7371E"/>
<path d="M309.488 73.1116C308.407 74.9932 304.25 80.7628 294.913 90.0009C292.198 92.6874 285.711 98.0262 282.095 100.463C278.468 102.9 274.65 105.099 270.629 107.038C261.505 111.504 255.614 113 247.967 113C236.804 113 230.001 110.098 227.546 104.306C226.78 102.56 226.397 100.611 226.397 98.457C226.397 96.3033 226.802 93.9796 227.613 91.4858C228.424 88.9921 229.494 86.5211 230.823 84.0613C233.47 79.1872 236.613 74.8799 240.229 71.1279C243.292 67.8974 247.302 64.0435 247.403 63.182C247.516 62.2185 246.851 61.5951 245.759 61.3344C244.396 61.017 242.943 60.4956 241.039 60.8923C239.136 61.289 236.906 63.7941 233.493 67.3873C233.493 67.3873 217.555 84.9228 212.385 89.7062C203.464 97.9469 194.273 103.093 185.814 106.29C178.572 109.01 173.379 108.885 170.214 105.904C167.612 103.399 165.551 99.3411 164.019 93.7415L162.183 87.0538L145.896 97.1308L136.491 102.515C125.273 108.67 116.87 111.753 111.261 111.753C104.075 111.753 98.0827 108.953 93.2957 103.365C91.088 100.826 89.421 98.0942 88.2834 95.1698C86.5375 96.4846 84.7579 97.7655 82.9332 99.0237C79.036 101.721 75.1501 104.079 71.2754 106.108C67.4008 108.137 63.6275 109.747 59.9556 110.96C56.2837 112.161 52.6793 112.773 49.1426 112.773C45.6058 112.773 41.9227 111.912 38.1268 110.2C34.331 108.477 30.952 106.188 28.0009 103.308C27.2688 102.594 26.5704 101.857 25.9172 101.121C25.6581 100.826 25.2301 100.792 24.9147 101.041C22.2115 103.195 19.3055 105.099 16.1629 106.562C10.8466 109.044 1.49781 111.243 0.112398 102.878C-0.507097 99.1257 1.52034 97.0287 4.07716 94.807C7.19716 92.0979 10.4073 89.4569 13.3245 86.5324C14.9803 84.8661 16.5234 83.1092 17.9989 81.2842L18.1566 80.8422C18.3593 73.9504 20.4881 66.9793 24.5655 59.9062C28.4853 53.1844 33.4863 47.5509 39.5573 42.9828C45.6284 38.4147 51.2601 36.1364 56.4526 36.1364C63.8978 36.1364 67.5585 38.0407 68.6848 42.2687C69.7098 46.066 68.3582 50.2713 67.4233 52.731C66.6011 54.896 65.6099 57.095 64.3596 59.2714C63.1094 61.4591 61.7352 63.5787 60.2259 65.6644C58.7166 67.7387 57.2861 69.6204 55.9007 71.3206C52.9609 74.9139 50.8434 77.1129 49.7959 78.1104C49.6382 78.2577 49.5593 78.4504 49.5706 78.6545C49.672 80.3094 50.5055 82.0437 52.9384 83.778C55.3826 85.5236 57.9845 86.3284 59.6853 86.3284C61.3861 86.3284 63.4135 85.9203 65.7225 85.0928C68.0428 84.2767 70.4307 83.1659 72.9086 81.783C75.3866 80.4001 77.9097 78.8132 80.4777 77.0109C83.0458 75.2086 85.5914 73.3723 88.0806 71.468L96.2805 65.0183C105.145 57.3444 117.287 48.0156 132.932 42.0533C133.923 41.6793 142.044 39.0835 144.939 38.3127C152.947 36.1704 165.405 34.8782 174.202 41.0332C176.961 42.9601 181.951 48.4463 179.957 52.1983C179.721 52.6403 179.518 53.0257 179.169 53.3771C178.527 54.0459 178.065 54.3973 176.736 54.8734C172.749 56.2902 172.298 49.3418 159.773 51.4955C156.011 52.1416 147.766 55.7008 144.522 57.3331C136.131 61.5498 129.88 65.313 123.955 72.5335C123.212 73.4403 122.367 75.4126 122.175 76.5688C122.119 76.9315 122.085 77.2829 122.085 77.623C122.085 79.652 123.989 81.4202 127.233 81.4202C128.032 81.4202 128.933 81.2616 130.026 80.9328C138.305 77.6797 144.241 73.5197 151.798 69.2917C152.88 68.6909 163.986 62.3659 166.903 61.017C171.465 58.8973 178.617 56.7323 183.483 59.9175C184.249 60.4956 184.981 61.1984 185.679 62.0372C186.197 62.7173 186.659 63.4427 187.065 64.2135C187.47 64.9843 187.831 65.7891 188.135 66.6166C188.596 67.9541 189.024 69.303 189.43 70.6632C189.835 72.0234 190.241 73.2363 190.646 74.3131C191.57 76.8295 193.541 78.1784 194.273 78.1784C195.569 78.1784 196.075 77.8043 197.45 77.0562C198.824 76.3194 203.645 72.9642 205.154 71.6154C210.47 66.8886 217.116 60.1329 225.338 50.566C230.756 44.2637 237.334 35.4336 242.233 35.4336C246.57 35.4336 249.498 36.6691 251.019 39.1288L252.089 40.8178C252.9 42.0987 254.06 42.7221 254.871 42.7221C255.682 42.7221 257.293 42.5521 259.151 42.1553C259.151 42.1553 265.673 40.319 269.998 40.319C270.967 40.319 275.044 40.2397 277.083 41.2258C280.349 42.8014 282.196 45.0345 283.075 47.6302C283.323 48.3443 283.571 49.0471 283.672 49.7952C284.325 54.6467 282.456 57.1064 280.732 59.9968C280.282 60.6316 279.797 61.2437 279.29 61.8218C276.756 64.7463 272.465 68.8609 271.868 69.4503C271.271 70.0398 268.905 72.3521 268.489 72.7262C267.937 73.2136 266.551 74.4831 265.999 74.9706C263.003 77.8383 262.271 78.6545 261.686 79.2779C258.881 82.259 258.16 86.3624 261.325 87.2692C263.589 87.7226 266.067 87.2919 268.737 85.875C273.107 83.5513 277.68 80.6155 279.718 79.1192C286.049 74.4831 299.204 64.9276 302.414 63.4541C303.057 63.1593 305.242 61.7765 307.956 61.7084C310.198 61.6518 312.045 63.8735 311.91 66.1291C311.797 67.9088 311.009 70.3685 309.42 73.1343L309.488 73.1116Z" fill="#242424"/>
</g>
<path d="M28.322 185.836H20.258V196H17.654V166.81H28.322C31.43 166.81 33.712 167.566 35.168 169.078C36.652 170.59 37.394 172.914 37.394 176.05C37.394 182.574 34.37 185.836 28.322 185.836ZM20.258 183.526H28.322C32.578 183.526 34.706 181.034 34.706 176.05C34.706 173.67 34.202 171.92 33.194 170.8C32.186 169.68 30.562 169.12 28.322 169.12H20.258V183.526ZM40.1194 185.458C40.1194 181.51 40.7774 178.71 42.0934 177.058C43.4374 175.406 45.7054 174.58 48.8974 174.58C52.1174 174.58 54.3854 175.406 55.7014 177.058C57.0454 178.71 57.7174 181.51 57.7174 185.458C57.7174 189.406 57.1014 192.22 55.8694 193.9C54.6654 195.58 52.3554 196.42 48.9394 196.42C45.5234 196.42 43.1994 195.58 41.9674 193.9C40.7354 192.22 40.1194 189.406 40.1194 185.458ZM42.7234 185.416C42.7234 188.72 43.1014 191.016 43.8574 192.304C44.6414 193.564 46.3214 194.194 48.8974 194.194C51.5014 194.194 53.1954 193.55 53.9794 192.262C54.7634 190.974 55.1554 188.692 55.1554 185.416C55.1554 182.112 54.7074 179.858 53.8114 178.654C52.9434 177.422 51.3194 176.806 48.9394 176.806C46.5594 176.806 44.9214 177.408 44.0254 178.612C43.1574 179.816 42.7234 182.084 42.7234 185.416ZM60.2587 175H62.8207L67.4407 193.816H68.0287L73.4887 175.42H76.1347L81.5947 193.816H82.2247L86.8447 175H89.4067L84.1567 196H79.7887L74.8327 178.696L69.8347 196H65.5087L60.2587 175ZM106.708 193.9L107.968 193.774L108.052 195.832C104.888 196.224 102.214 196.42 100.03 196.42C97.0058 196.392 94.8918 195.496 93.6878 193.732C92.4838 191.968 91.8818 189.252 91.8818 185.584C91.8818 178.248 94.7658 174.58 100.534 174.58C103.306 174.58 105.378 175.378 106.75 176.974C108.122 178.542 108.808 181.062 108.808 184.534L108.724 186.55H94.4438C94.4438 189.126 94.8778 191.044 95.7458 192.304C96.6418 193.536 98.1538 194.152 100.282 194.152C102.438 194.152 104.58 194.068 106.708 193.9ZM94.4438 184.45H106.288C106.288 181.678 105.826 179.704 104.902 178.528C104.006 177.352 102.55 176.764 100.534 176.764C98.5458 176.764 97.0338 177.38 95.9978 178.612C94.9618 179.816 94.4438 181.762 94.4438 184.45ZM113.13 196V175H115.608V178.024C116.644 177.296 117.904 176.596 119.388 175.924C120.9 175.252 122.286 174.804 123.546 174.58V177.1C122.342 177.352 121.082 177.744 119.766 178.276C118.45 178.78 117.428 179.228 116.7 179.62L115.608 180.25V196H113.13ZM139.891 193.9L141.151 193.774L141.235 195.832C138.071 196.224 135.397 196.42 133.213 196.42C130.189 196.392 128.075 195.496 126.871 193.732C125.667 191.968 125.065 189.252 125.065 185.584C125.065 178.248 127.949 174.58 133.717 174.58C136.489 174.58 138.561 175.378 139.933 176.974C141.305 178.542 141.991 181.062 141.991 184.534L141.907 186.55H127.627C127.627 189.126 128.061 191.044 128.929 192.304C129.825 193.536 131.337 194.152 133.465 194.152C135.621 194.152 137.763 194.068 139.891 193.9ZM127.627 184.45H139.471C139.471 181.678 139.009 179.704 138.085 178.528C137.189 177.352 135.733 176.764 133.717 176.764C131.729 176.764 130.217 177.38 129.181 178.612C128.145 179.816 127.627 181.762 127.627 184.45ZM162.021 165.676V196H159.501V194.446C157.289 195.762 155.049 196.42 152.781 196.42C151.745 196.42 150.849 196.294 150.093 196.042C149.337 195.818 148.567 195.356 147.783 194.656C146.187 193.228 145.389 190.442 145.389 186.298C145.389 182.126 146.061 179.13 147.405 177.31C148.749 175.49 151.017 174.58 154.209 174.58C155.441 174.58 157.205 174.762 159.501 175.126V165.676H162.021ZM149.631 192.766C150.163 193.298 150.681 193.662 151.185 193.858C151.717 194.054 152.389 194.152 153.201 194.152C154.041 194.152 154.993 193.998 156.057 193.69C157.149 193.382 158.003 193.088 158.619 192.808L159.501 192.346V177.31C157.261 176.974 155.525 176.806 154.293 176.806C151.913 176.806 150.261 177.534 149.337 178.99C148.441 180.446 147.993 182.7 147.993 185.752C147.993 189.336 148.539 191.674 149.631 192.766ZM184.876 174.58C187.676 174.58 189.622 175.392 190.714 177.016C191.806 178.64 192.352 181.454 192.352 185.458C192.352 189.434 191.652 192.262 190.252 193.942C188.88 195.594 186.304 196.42 182.524 196.42C180.956 196.42 179.08 196.308 176.896 196.084L175.804 196V165.676H178.324V176.134C180.508 175.098 182.692 174.58 184.876 174.58ZM178.324 193.9C180.284 194.068 181.852 194.152 183.028 194.152C184.232 194.152 185.31 193.984 186.262 193.648C187.214 193.312 187.942 192.752 188.446 191.968C188.978 191.156 189.328 190.246 189.496 189.238C189.664 188.202 189.748 186.844 189.748 185.164C189.748 182.196 189.384 180.068 188.656 178.78C187.956 177.492 186.626 176.848 184.666 176.848C183.714 176.848 182.706 176.974 181.642 177.226C180.578 177.45 179.752 177.688 179.164 177.94L178.324 178.276V193.9ZM194.523 175H197.085L202.671 193.816H204.183L209.811 175H212.373L203.301 205.45H200.781L203.595 196H200.697L194.523 175ZM27.776 234.462C23.408 234.462 20.356 233.286 18.62 230.934C16.912 228.582 16.058 224.872 16.058 219.804C16.058 214.708 16.926 210.928 18.662 208.464C20.426 206 23.464 204.768 27.776 204.768C32.088 204.768 35.112 206 36.848 208.464C38.584 210.9 39.452 214.666 39.452 219.762C39.452 223.122 39.088 225.838 38.36 227.91C37.66 229.982 36.498 231.564 34.874 232.656L38.402 238.326L34.076 240.342L30.338 234.21C29.806 234.378 28.952 234.462 27.776 234.462ZM22.316 227.952C23.268 229.576 25.088 230.388 27.776 230.388C30.464 230.388 32.27 229.59 33.194 227.994C34.146 226.37 34.622 223.64 34.622 219.804C34.622 215.968 34.132 213.182 33.152 211.446C32.2 209.71 30.408 208.842 27.776 208.842C25.144 208.842 23.338 209.71 22.358 211.446C21.378 213.182 20.888 215.954 20.888 219.762C20.888 223.57 21.364 226.3 22.316 227.952ZM55.6325 216.906H49.8365V226.146C49.8365 227.854 49.9625 228.988 50.2145 229.548C50.4665 230.108 51.1105 230.388 52.1465 230.388L55.5905 230.262L55.8005 233.916C53.9245 234.28 52.4965 234.462 51.5165 234.462C49.1365 234.462 47.4985 233.916 46.6025 232.824C45.7345 231.732 45.3005 229.674 45.3005 226.65V216.906H42.6125V213H45.3005V206.91H49.8365V213H55.6325V216.906ZM80.8798 222.996V218.88H89.0698V233.496C88.3138 233.692 86.7738 233.902 84.4498 234.126C82.1538 234.35 80.4878 234.462 79.4518 234.462C75.0838 234.462 72.0738 233.258 70.4218 230.85C68.7698 228.442 67.9438 224.676 67.9438 219.552C67.9438 214.4 68.7838 210.648 70.4638 208.296C72.1718 205.944 75.1118 204.768 79.2838 204.768C81.7478 204.768 84.5198 205.048 87.5998 205.608L89.0698 205.902L88.9018 209.598C85.5138 209.15 82.4758 208.926 79.7878 208.926C77.0998 208.926 75.2518 209.682 74.2438 211.194C73.2638 212.706 72.7738 215.506 72.7738 219.594C72.7738 223.682 73.2358 226.51 74.1598 228.078C75.1118 229.618 77.0158 230.388 79.8718 230.388C81.9158 230.388 83.4418 230.262 84.4498 230.01V222.996H80.8798ZM94.3736 234V213H98.9096V215.52C101.29 213.98 103.67 212.986 106.05 212.538V217.116C103.642 217.592 101.584 218.208 99.8756 218.964L98.9516 219.342V234H94.3736ZM110.519 215.268C111.975 213.448 114.383 212.538 117.743 212.538C121.103 212.538 123.497 213.448 124.925 215.268C126.381 217.088 127.109 219.818 127.109 223.458C127.109 227.098 126.409 229.842 125.009 231.69C123.609 233.538 121.187 234.462 117.743 234.462C114.299 234.462 111.877 233.538 110.477 231.69C109.077 229.842 108.377 227.098 108.377 223.458C108.377 219.818 109.091 217.088 110.519 215.268ZM113.963 228.918C114.607 230.038 115.867 230.598 117.743 230.598C119.619 230.598 120.879 230.038 121.523 228.918C122.167 227.798 122.489 225.964 122.489 223.416C122.489 220.868 122.139 219.062 121.439 217.998C120.767 216.934 119.535 216.402 117.743 216.402C115.951 216.402 114.705 216.934 114.005 217.998C113.333 219.062 112.997 220.868 112.997 223.416C112.997 225.964 113.319 227.798 113.963 228.918ZM144.383 213H148.919V234H144.383V232.698C142.339 233.874 140.449 234.462 138.713 234.462C135.829 234.462 133.897 233.692 132.917 232.152C131.937 230.584 131.447 227.854 131.447 223.962V213H136.025V224.004C136.025 226.524 136.235 228.218 136.655 229.086C137.075 229.954 138.055 230.388 139.595 230.388C141.107 230.388 142.493 230.108 143.753 229.548L144.383 229.296V213ZM154.461 243.03V213H158.997V214.302C160.929 213.126 162.735 212.538 164.415 212.538C167.187 212.538 169.217 213.392 170.505 215.1C171.793 216.78 172.437 219.622 172.437 223.626C172.437 227.602 171.695 230.402 170.211 232.026C168.755 233.65 166.361 234.462 163.029 234.462C161.881 234.462 160.551 234.336 159.039 234.084V243.03H154.461ZM163.617 216.612C162.301 216.612 160.985 216.906 159.669 217.494L159.039 217.788V230.178C160.159 230.402 161.391 230.514 162.735 230.514C164.639 230.514 165.955 229.968 166.683 228.876C167.411 227.784 167.775 225.922 167.775 223.29C167.775 218.838 166.389 216.612 163.617 216.612Z" fill="black"/>
<defs>
<clipPath id="clip0_1527_5334">
<rect width="312" height="113" fill="white"/>
</clipPath>
</defs>
</svg>
